<svg width="77" height="78" viewBox="0 0 77 78" fill="none" xmlns="http://www.w3.org/2000/svg">
<path d="M30.167 11.15C36.417 0.324953 51.4087 -0.641714 62.2337 5.60829C73.0587 11.8583 79.717 25.325 73.467 36.15L59.0337 27.8166L51.817 23.65L44.6003 19.4833L30.167 11.15Z" fill="white"/>
<path d="M62.2333 5.60829C51.4083 -0.641714 36.4167 0.324953 30.1667 11.15L44.6 19.4833M62.2333 5.60829C73.0583 11.8583 79.7167 25.325 73.4667 36.15L51.8167 23.65M62.2333 5.60829L64.3167 1.99995M62.2333 5.60829C54.6458 7.64162 49.8083 10.4625 44.6 19.4833M62.2333 5.60829C64.2667 13.1958 64.2417 18.7958 59.0333 27.8166M44.6 19.4833L51.8167 23.65M51.8167 23.65L39.3167 45.3M1 77L4.66667 72.6C5.4716 71.6317 6.48546 70.8585 7.6321 70.3384C8.77874 69.8182 10.0283 69.5647 11.287 69.5967C12.5457 69.6288 13.7808 69.9457 14.8994 70.5236C16.0181 71.1015 16.9913 71.9253 17.7458 72.9333C18.4899 73.9275 19.4467 74.7428 20.5463 75.3197C21.6459 75.8966 22.8606 76.2205 24.1015 76.2676C25.3423 76.3147 26.578 76.0839 27.7183 75.5921C28.8585 75.1003 29.8744 74.3598 30.6917 73.425L31.4833 72.5166C32.3578 71.5162 33.4361 70.7144 34.646 70.1651C35.8558 69.6157 37.1692 69.3315 38.4979 69.3315C39.8266 69.3315 41.14 69.6157 42.3498 70.1651C43.5597 70.7144 44.638 71.5162 45.5125 72.5166L46.3083 73.425C49.8 77.4125 56.075 77.175 59.2542 72.9375C60.0087 71.9287 60.982 71.1042 62.1011 70.5258C63.2201 69.9475 64.4557 69.6303 65.715 69.5983C66.9743 69.5662 68.2244 69.82 69.3715 70.3406C70.5185 70.8612 71.5326 71.6351 72.3375 72.6041L76 77M16.45 56.1666C22.5337 50.7859 30.3783 47.8212 38.5 47.8333C46.6217 47.8212 54.4663 50.7859 60.55 56.1666" stroke="white" stroke-width="2" stroke-linecap="round" stroke-linejoin="round"/>
</svg>
