<svg width="32" height="32" viewBox="0 0 32 32" fill="none" xmlns="http://www.w3.org/2000/svg">
<path d="M3.17058 1.7236L4.85968 0.600824C6.43611 -0.451735 8.55234 -0.0837645 9.79867 1.46055L12.2796 4.53042C13.3616 5.86952 13.3583 7.65148 12.4672 9.27907C11.2565 11.4891 10.3097 13.0772 10.3097 13.0772C11.058 14.9982 12.1974 16.7428 13.6555 18.2003C15.3599 19.9373 16.9452 20.8162 18.7142 21.6425C18.7142 21.6425 20.3351 20.738 22.5525 19.5574C24.0331 18.7704 25.553 18.3079 26.8479 19.3877L29.8653 21.9009C30.5969 22.516 31.0946 23.3641 31.2749 24.3028C31.4551 25.2415 31.3069 26.2136 30.8551 27.056L29.8536 28.8726C29.3802 29.7485 28.6749 30.4772 27.8149 30.9788C26.9549 31.4804 25.9734 31.7357 24.9779 31.7166C20.2101 31.6035 14.5624 28.5207 8.96313 22.8314C3.35724 17.1285 0.884378 11.9492 0.619605 6.93677C0.507213 4.82787 1.49854 2.83635 3.17058 1.7236Z" fill="#EE8912"/>
</svg>
