<svg width="85" height="83" viewBox="0 0 85 83" fill="none" xmlns="http://www.w3.org/2000/svg">
<path fill-rule="evenodd" clip-rule="evenodd" d="M58.183 0.166626C60.504 0.166705 62.7792 0.813018 64.7537 2.03316C66.7281 3.25331 68.3239 4.99909 69.3622 7.07496L75.1372 18.6208C76.1538 18.2041 77.1538 17.7541 78.1372 17.2708C79.1262 16.7768 80.271 16.696 81.3196 17.0461C82.3682 17.3961 83.2349 18.1484 83.7288 19.1375C84.2228 20.1265 84.3036 21.2713 83.9536 22.3199C83.6035 23.3685 82.8512 24.2352 81.8622 24.7291C80.8606 25.1749 79.8536 25.6082 78.8413 26.0291L82.8455 34.0416C83.7146 35.7789 84.1669 37.6949 84.1663 39.6375V50.1666C84.1663 51.9253 83.7952 53.6642 83.0772 55.2696C82.3592 56.875 81.3105 58.3109 79.9997 59.4833V64.75C79.9997 66.4076 79.3412 67.9973 78.1691 69.1694C76.997 70.3415 75.4073 71 73.7497 71C72.0921 71 70.5024 70.3415 69.3303 69.1694C68.1582 67.9973 67.4997 66.4076 67.4997 64.75V62.6666H17.4997V64.75C17.4997 66.4076 16.8412 67.9973 15.6691 69.1694C14.497 70.3415 12.9073 71 11.2497 71C9.59207 71 8.00236 70.3415 6.83026 69.1694C5.65815 67.9973 4.99967 66.4076 4.99967 64.75V59.4833C2.44134 57.1916 0.833008 53.8666 0.833008 50.1666V39.6333C0.833786 37.6935 1.28599 35.7806 2.15384 34.0458L6.12467 26.0958C5.11912 25.6736 4.12606 25.2194 3.14551 24.7333C2.16147 24.2329 1.41346 23.3659 1.06273 22.3191C0.71199 21.2724 0.786612 20.1297 1.27051 19.1375C1.51492 18.6476 1.85348 18.2107 2.26683 17.8517C2.68018 17.4927 3.16022 17.2187 3.67951 17.0454C4.19881 16.872 4.74718 16.8027 5.29328 16.8414C5.83937 16.8801 6.3725 17.026 6.86217 17.2708C7.84829 17.7569 8.84828 18.2069 9.86217 18.6208L15.6372 7.07913C16.6749 5.00248 18.2704 3.25584 20.2449 2.03494C22.2194 0.814027 24.4949 0.167092 26.8163 0.166626H58.183ZM23.7497 37.6666C22.0921 37.6666 20.5024 38.3251 19.3303 39.4972C18.1582 40.6693 17.4997 42.259 17.4997 43.9166C17.4997 45.5742 18.1582 47.1639 19.3303 48.336C20.5024 49.5082 22.0921 50.1666 23.7497 50.1666C25.4073 50.1666 26.997 49.5082 28.1691 48.336C29.3412 47.1639 29.9997 45.5742 29.9997 43.9166C29.9997 42.259 29.3412 40.6693 28.1691 39.4972C26.997 38.3251 25.4073 37.6666 23.7497 37.6666ZM61.2497 37.6666C59.5921 37.6666 58.0024 38.3251 56.8303 39.4972C55.6582 40.6693 54.9997 42.259 54.9997 43.9166C54.9997 45.5742 55.6582 47.1639 56.8303 48.336C58.0024 49.5082 59.5921 50.1666 61.2497 50.1666C62.9073 50.1666 64.497 49.5082 65.6691 48.336C66.8412 47.1639 67.4997 45.5742 67.4997 43.9166C67.4997 42.259 66.8412 40.6693 65.6691 39.4972C64.497 38.3251 62.9073 37.6666 61.2497 37.6666ZM58.183 8.49996H26.8163C26.1305 8.49986 25.4553 8.66903 24.8506 8.99248C24.2458 9.31593 23.7303 9.78364 23.3497 10.3541L23.0913 10.8041L17.7997 21.3791C24.2497 23.3125 32.9413 25.1666 42.4997 25.1666C51.4247 25.1666 59.5872 23.55 65.8747 21.7625L67.1955 21.3791L61.908 10.8041C61.6014 10.1909 61.1481 9.66274 60.5884 9.26661C60.0288 8.87049 59.38 8.6186 58.6997 8.53329L58.1872 8.49996H58.183Z" fill="white"/>
</svg>
