<svg width="41" height="41" viewBox="0 0 41 41" fill="none" xmlns="http://www.w3.org/2000/svg">
<circle cx="20.5" cy="20.5" r="20" fill="black"/>
<path d="M18.4053 21.6344C18.3398 21.6344 16.8998 21.6344 16.2453 21.6344C15.8962 21.6344 15.7871 21.5035 15.7871 21.1763C15.7871 20.3035 15.7871 19.409 15.7871 18.5363C15.7871 18.1872 15.918 18.0781 16.2453 18.0781H18.4053C18.4053 18.0126 18.4053 16.7472 18.4053 16.1581C18.4053 15.2853 18.558 14.4563 18.9944 13.6926C19.4526 12.9072 20.1071 12.3835 20.9362 12.0781C21.4817 11.8817 22.0271 11.7944 22.6162 11.7944H24.7544C25.0598 11.7944 25.1907 11.9253 25.1907 12.2308V14.7181C25.1907 15.0235 25.0598 15.1544 24.7544 15.1544C24.1653 15.1544 23.5762 15.1544 22.9871 15.1763C22.398 15.1763 22.0926 15.4599 22.0926 16.0708C22.0707 16.7253 22.0926 17.3581 22.0926 18.0344H24.6235C24.9726 18.0344 25.1035 18.1653 25.1035 18.5144V21.1544C25.1035 21.5035 24.9944 21.6126 24.6235 21.6126C23.838 21.6126 22.158 21.6126 22.0926 21.6126V28.7253C22.0926 29.0963 21.9835 29.2272 21.5907 29.2272C20.6744 29.2272 19.7798 29.2272 18.8635 29.2272C18.5362 29.2272 18.4053 29.0963 18.4053 28.769C18.4053 26.4781 18.4053 21.6999 18.4053 21.6344Z" fill="white"/>
</svg>
