<svg width="41" height="41" viewBox="0 0 41 41" fill="none" xmlns="http://www.w3.org/2000/svg">
<circle cx="20.167" cy="20.5" r="20" fill="black"/>
<g clip-path="url(#clip0_18_1324)">
<path d="M31.0742 16.0167C31.023 14.8554 30.8352 14.057 30.5661 13.3652C30.2886 12.6308 29.8616 11.9733 29.3022 11.4268C28.7557 10.8717 28.0939 10.4404 27.368 10.1672C26.6722 9.89821 25.878 9.71041 24.7167 9.6592C23.5467 9.60366 23.1752 9.59082 20.2078 9.59082C17.2403 9.59082 16.8689 9.60366 15.7032 9.65487C14.5419 9.70607 13.7435 9.89404 13.0519 10.1629C12.3173 10.4404 11.6599 10.8674 11.1133 11.4268C10.5583 11.9733 10.1271 12.6352 9.85375 13.361C9.58473 14.057 9.39693 14.8511 9.34573 16.0124C9.29019 17.1824 9.27734 17.5538 9.27734 20.5213C9.27734 23.4887 9.29019 23.8601 9.34139 25.0258C9.39259 26.1871 9.58056 26.9855 9.84958 27.6773C10.1271 28.4117 10.5583 29.0692 11.1133 29.6157C11.6599 30.1708 12.3217 30.6021 13.0475 30.8753C13.7435 31.1443 14.5376 31.3321 15.6991 31.3833C16.8646 31.4347 17.2362 31.4474 20.2036 31.4474C23.1711 31.4474 23.5425 31.4347 24.7081 31.3833C25.8695 31.3321 26.6679 31.1443 27.3595 30.8753C28.8284 30.3074 29.9897 29.1461 30.5576 27.6773C30.8265 26.9814 31.0145 26.1871 31.0657 25.0258C31.1169 23.8601 31.1297 23.4887 31.1297 20.5213C31.1297 17.5538 31.1254 17.1824 31.0742 16.0167ZM29.1059 24.9404C29.0589 26.0078 28.8796 26.5842 28.7302 26.9685C28.3629 27.9207 27.6072 28.6764 26.655 29.0437C26.2708 29.1931 25.6902 29.3724 24.6269 29.4193C23.4741 29.4706 23.1284 29.4833 20.2121 29.4833C17.2959 29.4833 16.9458 29.4706 15.7971 29.4193C14.7297 29.3724 14.1533 29.1931 13.769 29.0437C13.2952 28.8685 12.8639 28.591 12.5138 28.2281C12.1509 27.8737 11.8734 27.4467 11.6982 26.9728C11.5488 26.5886 11.3695 26.0078 11.3226 24.9447C11.2713 23.7919 11.2586 23.446 11.2586 20.5298C11.2586 17.6135 11.2713 17.2634 11.3226 16.115C11.3695 15.0475 11.5488 14.4711 11.6982 14.0869C11.8734 13.6128 12.1509 13.1817 12.5181 12.8315C12.8724 12.4685 13.2994 12.191 13.7734 12.016C14.1576 11.8666 14.7384 11.6873 15.8015 11.6403C16.9543 11.5891 17.3002 11.5762 20.2163 11.5762C23.1369 11.5762 23.4826 11.5891 24.6313 11.6403C25.6987 11.6873 26.2751 11.8666 26.6594 12.016C27.1332 12.191 27.5645 12.4685 27.9146 12.8315C28.2775 13.1859 28.5551 13.6128 28.7302 14.0869C28.8796 14.4711 29.0589 15.0517 29.1059 16.115C29.1571 17.2678 29.17 17.6135 29.17 20.5298C29.17 23.446 29.1571 23.7876 29.1059 24.9404Z" fill="white"/>
<path d="M20.2074 14.9065C17.1077 14.9065 14.5928 17.4213 14.5928 20.5212C14.5928 23.621 17.1077 26.1358 20.2074 26.1358C23.3073 26.1358 25.8221 23.621 25.8221 20.5212C25.8221 17.4213 23.3073 14.9065 20.2074 14.9065ZM20.2074 24.1632C18.1965 24.1632 16.5653 22.5322 16.5653 20.5212C16.5653 18.5101 18.1965 16.8791 20.2074 16.8791C22.2185 16.8791 23.8495 18.5101 23.8495 20.5212C23.8495 22.5322 22.2185 24.1632 20.2074 24.1632Z" fill="white"/>
<path d="M27.3551 14.6845C27.3551 15.4084 26.7682 15.9953 26.0442 15.9953C25.3203 15.9953 24.7334 15.4084 24.7334 14.6845C24.7334 13.9605 25.3203 13.3738 26.0442 13.3738C26.7682 13.3738 27.3551 13.9605 27.3551 14.6845Z" fill="white"/>
</g>
<defs>
<clipPath id="clip0_18_1324">
<rect width="21.8182" height="21.8566" fill="white" transform="translate(9.25781 9.59082)"/>
</clipPath>
</defs>
</svg>
