<svg width="41" height="41" viewBox="0 0 41 41" fill="none" xmlns="http://www.w3.org/2000/svg">
<circle cx="20.833" cy="20.5" r="20" fill="black"/>
<path d="M29.5603 29.2273V22.8345C29.5603 19.6927 28.8839 17.2927 25.2185 17.2927C23.4512 17.2927 22.273 18.2527 21.793 19.1691H21.7494V17.5764H18.2803V29.2273H21.9021V23.4455C21.9021 21.9182 22.1857 20.4564 24.0621 20.4564C25.9166 20.4564 25.9385 22.18 25.9385 23.5327V29.2055H29.5603V29.2273Z" fill="white"/>
<path d="M12.3887 17.5764H16.0105V29.2273H12.3887V17.5764Z" fill="white"/>
<path d="M14.2 11.7727C13.0437 11.7727 12.1055 12.7109 12.1055 13.8673C12.1055 15.0236 13.0437 15.9836 14.2 15.9836C15.3564 15.9836 16.2946 15.0236 16.2946 13.8673C16.2946 12.7109 15.3564 11.7727 14.2 11.7727Z" fill="white"/>
</svg>
