<svg width="21" height="21" viewBox="0 0 21 26" fill="none" xmlns="http://www.w3.org/2000/svg">
<path d="M15.6667 6.33333C15.6667 7.74782 15.1048 9.10438 14.1046 10.1046C13.1044 11.1048 11.7478 11.6667 10.3333 11.6667C8.91884 11.6667 7.56229 11.1048 6.5621 10.1046C5.5619 9.10438 5 7.74782 5 6.33333C5 4.91885 5.5619 3.56229 6.5621 2.5621C7.56229 1.5619 8.91884 1 10.3333 1C11.7478 1 13.1044 1.5619 14.1046 2.5621C15.1048 3.56229 15.6667 4.91885 15.6667 6.33333ZM10.3333 15.6667C7.85798 15.6667 5.48401 16.65 3.73367 18.4003C1.98333 20.1507 1 22.5246 1 25H19.6667C19.6667 22.5246 18.6833 20.1507 16.933 18.4003C15.1827 16.65 12.8087 15.6667 10.3333 15.6667Z" stroke="#fff" stroke-width="2" stroke-linecap="round" stroke-linejoin="round"/>
</svg>
