<svg width="93" height="63" viewBox="0 0 93 63" fill="none" xmlns="http://www.w3.org/2000/svg">
<path d="M0.666992 62.6666V0.166626H9.00033V41.8333H42.3337V8.49996H75.667C80.2503 8.49996 84.1739 10.1319 87.4378 13.3958C90.7017 16.6597 92.3337 20.5833 92.3337 25.1666V62.6666H84.0003V50.1666H9.00033V62.6666H0.666992ZM25.667 37.6666C22.1948 37.6666 19.2434 36.4513 16.8128 34.0208C14.3823 31.5902 13.167 28.6388 13.167 25.1666C13.167 21.6944 14.3823 18.743 16.8128 16.3125C19.2434 13.8819 22.1948 12.6666 25.667 12.6666C29.1392 12.6666 32.0906 13.8819 34.5212 16.3125C36.9517 18.743 38.167 21.6944 38.167 25.1666C38.167 28.6388 36.9517 31.5902 34.5212 34.0208C32.0906 36.4513 29.1392 37.6666 25.667 37.6666Z" fill="white"/>
</svg>
