<svg width="41" height="41" viewBox="0 0 41 41" fill="none" xmlns="http://www.w3.org/2000/svg">
<circle cx="20.5" cy="20.5" r="20" fill="black"/>
<g clip-path="url(#clip0_18_1331)">
<path d="M31.409 13.7349C30.5976 14.0908 29.7331 14.3267 28.8317 14.4412C29.759 13.8876 30.4667 13.0176 30.7995 11.969C29.9349 12.4844 28.9804 12.8485 27.9631 13.0517C27.1422 12.1776 25.9722 11.6362 24.6958 11.6362C22.2195 11.6362 20.2258 13.6462 20.2258 16.1103C20.2258 16.4649 20.2558 16.8058 20.3295 17.1303C16.6108 16.949 13.3204 15.1667 11.1099 12.4517C10.724 13.1212 10.4976 13.8876 10.4976 14.7126C10.4976 16.2617 11.2954 17.6349 12.4845 18.4299C11.7658 18.4162 11.0608 18.2076 10.4635 17.879C10.4635 17.8926 10.4635 17.9103 10.4635 17.928C10.4635 20.1017 12.014 21.9071 14.0472 22.323C13.6831 22.4226 13.2863 22.4703 12.8745 22.4703C12.5881 22.4703 12.299 22.454 12.0276 22.394C12.6072 24.1653 14.2517 25.4676 16.2072 25.5099C14.6854 26.7003 12.7531 27.4176 10.6613 27.4176C10.2945 27.4176 9.94264 27.4012 9.59082 27.3562C11.5722 28.634 13.9204 29.3635 16.4526 29.3635C24.6835 29.3635 29.1835 22.5453 29.1835 16.6353C29.1835 16.4376 29.1767 16.2467 29.1672 16.0571C30.0549 15.4271 30.8008 14.6403 31.409 13.7349Z" fill="white"/>
</g>
<defs>
<clipPath id="clip0_18_1331">
<rect width="21.8182" height="21.8182" fill="white" transform="translate(9.59082 9.59082)"/>
</clipPath>
</defs>
</svg>
